<svg xmlns="http://www.w3.org/2000/svg" viewBox="0 0 1600 900" role="img" aria-labelledby="title desc"><title id="title">Sinjska alka: viteška igra koja je postala dio hrvatske nematerijalne baštine</title><desc id="desc">PatriaSoul urednička ilustracija za temu: Sinjska alka: viteška igra koja je postala dio hrvatske nematerijalne baštine</desc><rect width="1600" height="900" fill="#071f3d"/><path d="M0 190 L1600 35 L1600 250 L0 410 Z" fill="#9f0d25"/><path d="M0 500 L1600 360 L1600 470 L0 610 Z" fill="#fff"/><path d="M0 650 L1600 510 L1600 900 L0 900 Z" fill="#071f3d"/><g opacity=".12" fill="#fff"><path d="M0 0h80v80H0zM160 0h80v80h-80zM320 0h80v80h-80zM480 0h80v80h-80zM640 0h80v80h-80zM800 0h80v80h-80zM960 0h80v80h-80zM1120 0h80v80h-80zM1280 0h80v80h-80zM1440 0h80v80h-80z"/></g><text x="90" y="105" fill="#fff" font-family="Arial,Helvetica,sans-serif" font-size="28" font-weight="700" letter-spacing="5">PATRIASOUL · ČUVARI NASLJEĐA</text><text x="90" y="660" fill="#9f0d25" font-family="Arial,Helvetica,sans-serif" font-size="30" font-weight="700" letter-spacing="3">BAŠTINA</text><foreignObject x="90" y="700" width="1420" height="150"><div xmlns="http://www.w3.org/1999/xhtml" style="font-family:Arial,Helvetica,sans-serif;color:#fff;font-size:44px;font-weight:800;line-height:1.08;">Sinjska alka: viteška igra koja je postala dio hrvatske nematerijalne baštine</div></foreignObject></svg>